<?xml version="1.0" standalone="no"?>
<!DOCTYPE svg PUBLIC "-//W3C//DTD SVG 20010904//EN"
 "http://www.w3.org/TR/2001/REC-SVG-20010904/DTD/svg10.dtd">
<svg version="1.0" xmlns="http://www.w3.org/2000/svg"
 width="300.000000pt" height="300.000000pt" viewBox="0 0 300.000000 300.000000"
 preserveAspectRatio="xMidYMid meet">
<metadata>
Created by potrace 1.10, written by Peter Selinger 2001-2011
</metadata>
<g transform="translate(0.000000,300.000000) scale(0.100000,-0.100000)"
fill="#000000" stroke="none">
<path d="M1390 2934 c-14 -2 -59 -9 -100 -15 -206 -29 -485 -139 -615 -244
-22 -17 -47 -36 -56 -41 -41 -22 -167 -147 -233 -229 -199 -248 -308 -534
-323 -845 -28 -591 310 -1144 845 -1380 206 -91 370 -125 602 -124 253 1 410
39 649 157 329 163 578 448 699 802 66 192 76 252 76 465 1 220 -7 274 -64
451 -71 219 -151 357 -313 541 -213 244 -575 424 -921 457 -106 11 -194 12
-246 5z m315 -44 c449 -72 832 -344 1042 -740 72 -136 110 -251 143 -430 26
-139 22 -370 -8 -510 -171 -786 -930 -1271 -1707 -1090 -530 123 -941 548
-1057 1093 -29 139 -31 411 -4 537 101 471 384 833 803 1027 131 60 249 93
443 121 72 10 257 6 345 -8z"/>
<path d="M1440 2877 c-3 -3 -39 -7 -80 -11 -275 -23 -572 -156 -794 -356 l-39
-35 248 -241 248 -241 66 50 c107 81 252 136 359 137 l32 0 -2 347 c-3 305 -5
348 -18 351 -9 1 -18 1 -20 -1z m0 -56 c6 -12 10 -129 10 -310 l0 -291 -27 -5
c-135 -28 -246 -71 -331 -129 -28 -20 -59 -36 -68 -36 -18 0 -434 408 -434
426 0 9 48 56 95 91 73 56 103 74 230 142 43 24 140 62 183 73 20 5 53 14 72
19 40 12 192 36 232 38 18 1 31 -6 38 -18z"/>
<path d="M1240 2781 c-19 -10 -71 -31 -115 -46 -84 -28 -114 -48 -116 -74 0
-10 -2 -12 -6 -3 -7 18 -54 15 -83 -5 -14 -10 -34 -19 -45 -21 -10 -1 -29 -9
-42 -17 -12 -8 -29 -15 -36 -15 -8 0 -20 -7 -27 -15 -7 -8 -21 -15 -31 -15
-28 0 -49 -37 -38 -67 5 -13 6 -35 3 -48 -4 -16 0 -27 16 -38 26 -18 47 -13
120 28 30 17 81 39 114 49 32 10 67 29 79 42 15 17 26 22 48 17 19 -4 42 3 75
21 25 14 54 26 64 26 10 0 23 7 30 15 7 8 22 15 34 15 21 0 64 24 78 44 17 25
7 68 -21 97 -34 34 -53 36 -101 10z m82 -28 c22 -19 24 -66 4 -82 -25 -21 -69
-9 -84 22 -26 55 35 101 80 60z m-95 -63 c25 -58 16 -70 -29 -39 -20 15 -30
18 -26 8 3 -7 9 -22 13 -31 5 -12 3 -18 -7 -18 -14 0 -50 88 -42 102 3 5 18
-1 34 -12 37 -26 46 -25 27 4 -15 22 -13 36 3 36 3 0 16 -22 27 -50z m-96 -43
l19 -47 -30 -15 c-34 -18 -50 -19 -50 -5 0 6 11 15 25 20 14 5 25 15 25 21 0
6 -7 8 -15 5 -8 -3 -22 -9 -30 -12 -10 -4 -15 0 -15 10 0 9 8 16 20 16 11 0
20 7 20 15 0 18 -5 18 -32 4 -14 -7 -23 -8 -30 -1 -8 8 0 15 23 26 19 8 38 13
43 12 5 -1 17 -23 27 -49z m-133 -25 c3 -9 -3 -13 -14 -12 -31 4 -44 1 -44
-10 0 -5 16 -10 35 -10 40 0 55 -21 34 -46 -13 -16 -67 -16 -59 1 3 6 13 9 23
8 9 -2 17 1 17 6 0 6 -15 11 -32 13 -36 3 -49 28 -27 54 15 18 61 15 67 -4z
m-80 -67 c14 -28 18 -47 11 -51 -13 -8 -14 -7 -32 39 -16 36 -30 46 -41 28 -3
-5 1 -25 9 -45 18 -43 18 -46 2 -46 -27 0 -49 103 -24 113 36 15 53 6 75 -38z
m-98 -32 c11 -25 19 -47 18 -48 -15 -10 -97 -45 -106 -45 -17 0 -15 20 3 26
13 5 13 10 0 41 -18 42 -19 53 -4 53 6 0 17 -17 25 -38 11 -25 22 -38 35 -38
22 0 24 12 4 46 -17 29 -19 50 -5 50 5 0 18 -21 30 -47z"/>
<path d="M1273 2743 c-18 -6 -16 -38 3 -53 12 -11 18 -11 30 2 24 24 -1 62
-33 51z"/>
<path d="M1247 2530 c-14 -16 -27 -34 -29 -40 -2 -7 -14 -6 -36 2 -43 16 -80
-3 -104 -54 -24 -49 -35 -54 -64 -27 -25 23 -26 23 -55 6 -17 -9 -42 -17 -55
-17 -30 0 -74 -41 -74 -69 0 -35 31 -99 55 -115 32 -21 57 -20 88 4 14 11 37
20 51 20 19 0 31 10 52 45 14 25 29 44 33 43 55 -29 64 -31 89 -22 20 7 50 43
58 71 0 2 14 -2 30 -9 42 -15 81 -3 98 31 13 24 13 34 0 76 -18 63 -39 85 -80
85 -23 0 -39 -8 -57 -30z m97 -41 c-1 -13 5 -28 12 -32 21 -12 17 -45 -7 -57
-33 -18 -64 -9 -64 20 0 14 -8 32 -19 41 -40 33 15 93 59 64 12 -7 19 -23 19
-36z m-166 -21 c20 -20 14 -31 -13 -24 -21 5 -25 3 -25 -14 0 -17 3 -19 19 -8
41 25 83 -51 46 -82 -25 -21 -65 -3 -81 35 -20 48 -18 71 8 89 27 19 31 19 46
4z m-168 -103 c12 -44 24 -57 32 -33 2 6 9 8 16 4 8 -4 5 -17 -10 -42 -11 -19
-24 -32 -28 -27 -15 18 -51 123 -45 132 12 21 22 11 35 -34z m93 11 c7 -16 -1
-26 -20 -26 -7 0 -13 9 -13 20 0 23 25 27 33 6z m-158 -29 c37 -58 27 -117
-20 -117 -41 0 -81 93 -55 125 19 22 57 18 75 -8z"/>
<path d="M1285 2500 c-10 -16 16 -43 28 -31 11 11 2 41 -12 41 -5 0 -13 -5
-16 -10z"/>
<path d="M1154 2385 c3 -9 6 -19 6 -21 0 -2 7 -4 16 -4 22 0 13 34 -10 38 -14
3 -17 0 -12 -13z"/>
<path d="M890 2331 c0 -24 24 -71 36 -71 17 0 18 20 2 55 -10 23 -38 35 -38
16z"/>
<path d="M1506 2868 c-2 -7 -3 -35 -2 -63 1 -27 3 -179 4 -336 l2 -286 71 -7
c120 -11 249 -65 348 -145 l43 -35 202 204 c279 283 282 286 265 307 -30 36
-209 161 -294 205 -152 79 -253 113 -415 142 -141 25 -219 30 -224 14z m79
-55 l7 -38 14 28 c25 47 34 20 12 -34 -23 -55 -41 -59 -46 -11 -4 39 -17 42
-26 6 -5 -17 -11 -23 -17 -17 -12 12 20 103 37 103 6 0 15 -17 19 -37z m245
-13 c141 -34 269 -89 390 -168 60 -40 62 -43 30 -37 -19 4 -62 20 -94 37 -46
22 -67 28 -93 23 -20 -3 -33 -2 -33 4 0 19 -53 59 -88 66 -19 3 -42 10 -51 15
-9 5 -49 25 -90 45 -87 41 -85 42 29 15z m-129 -5 l29 -16 -25 -50 c-14 -27
-29 -47 -34 -45 -4 3 -21 10 -36 16 -20 8 -25 14 -18 21 8 8 17 8 31 0 14 -7
23 -8 27 -1 3 6 -6 15 -20 20 -14 5 -23 14 -20 20 4 7 12 7 25 0 25 -13 30
-13 30 4 0 7 -9 16 -20 19 -21 5 -28 27 -10 27 6 0 24 -7 41 -15z m108 -51 c5
-5 -31 -94 -39 -94 -4 0 -21 5 -39 11 -43 15 -39 31 7 24 35 -6 36 -5 18 9
-11 9 -24 16 -30 16 -6 0 -6 4 1 11 8 8 17 8 32 0 17 -9 21 -9 21 2 0 8 -12
19 -26 25 -14 7 -22 17 -19 22 5 8 55 -9 74 -26z m72 -24 c23 -13 24 -35 3
-85 -11 -28 -18 -35 -27 -26 -8 8 -7 20 5 45 9 19 14 37 11 40 -15 15 -32 3
-43 -29 -6 -19 -18 -35 -26 -35 -18 0 -18 4 2 43 31 60 40 65 75 47z m-211
-64 c47 -19 99 -38 115 -42 17 -4 58 -22 93 -40 47 -24 71 -32 93 -27 23 4 34
0 58 -26 16 -17 38 -31 48 -31 11 0 28 -7 39 -15 10 -8 24 -15 31 -15 23 0
153 -64 153 -74 0 -15 -132 -146 -147 -146 -7 0 -13 -4 -13 -9 0 -5 -38 -49
-84 -97 l-84 -88 -84 51 c-85 53 -199 97 -278 109 -25 3 -51 13 -57 22 -15 19
-17 110 -3 146 5 15 6 26 0 26 -9 0 -14 285 -5 301 4 5 13 5 23 0 9 -5 55 -25
102 -45z m300 24 c5 0 16 -7 25 -16 17 -18 13 -48 -13 -76 -19 -22 -40 -23
-64 -1 -22 20 -23 39 -3 87 14 33 17 35 31 21 8 -8 19 -15 24 -15z m151 -60
c32 -18 21 -89 -16 -104 -19 -7 -62 12 -69 30 -8 20 15 29 26 10 13 -22 45
-20 53 4 7 24 -1 40 -20 40 -9 0 -12 -6 -9 -15 7 -17 -4 -19 -25 -6 -19 12 -4
51 20 51 11 0 29 -5 40 -10z m80 -71 l6 -34 11 28 c6 15 16 27 22 27 13 0 13
-27 1 -35 -5 -3 -12 -19 -16 -36 -9 -42 -38 -35 -46 11 l-5 35 -8 -27 c-5 -16
-14 -28 -22 -28 -18 0 -18 -1 7 54 23 54 41 55 50 5z m89 -3 c0 -14 -43 -96
-50 -96 -13 0 -13 8 6 57 9 24 23 43 30 43 8 0 14 -2 14 -4z m38 -39 c4 -30
17 -36 26 -12 3 8 13 15 22 15 8 0 14 -3 12 -7 -3 -5 -13 -27 -23 -50 -18 -43
-53 -63 -40 -23 7 23 2 25 -25 8 -15 -10 -22 -10 -31 -1 -10 10 -6 15 14 22
23 9 25 14 20 47 -5 29 -3 36 8 32 8 -2 15 -17 17 -31z"/>
<path d="M1924 2635 c-8 -19 3 -35 26 -35 16 0 30 18 30 41 0 15 -50 10 -56
-6z"/>
<path d="M2236 2214 l-238 -242 42 -53 c78 -99 127 -220 145 -358 l7 -53 67 6
c36 3 191 6 344 6 l279 0 -6 73 c-18 232 -102 477 -230 670 -44 67 -148 190
-161 192 -5 1 -117 -107 -249 -241z m291 153 c103 -117 199 -288 252 -449 45
-139 76 -326 57 -356 -5 -9 -85 -12 -311 -12 l-305 0 -5 28 c-22 115 -74 262
-107 307 -4 6 -19 24 -34 42 -18 24 -23 37 -16 49 16 29 414 424 427 424 7 0
26 -15 42 -33z"/>
<path d="M2286 2131 c-20 -23 -20 -28 4 -58 11 -14 17 -29 14 -34 -5 -9 22
-93 36 -114 4 -5 13 -28 20 -50 7 -22 26 -67 42 -100 55 -110 63 -129 61 -136
-1 -3 9 -16 22 -29 23 -22 25 -22 72 -6 27 9 59 23 71 32 25 17 29 56 8 73 -8
7 -14 20 -14 29 2 30 -23 92 -42 102 -12 6 -16 17 -13 30 8 32 -24 61 -62 57
-18 -2 -37 -7 -43 -11 -7 -4 -12 -3 -12 3 0 5 8 12 18 15 11 4 29 17 41 30 19
20 21 28 12 44 -13 24 -43 36 -71 27 -27 -9 -25 7 5 35 51 48 20 77 -82 77
-56 1 -75 -3 -87 -16z m168 -17 c4 -10 -3 -19 -23 -27 -17 -7 -39 -25 -51 -39
-18 -24 -19 -30 -8 -50 7 -13 14 -24 15 -26 0 -2 23 8 51 22 27 14 52 22 56
19 16 -17 1 -34 -44 -50 -27 -10 -50 -21 -50 -26 0 -4 6 -23 14 -42 l15 -35
47 21 c46 19 74 19 74 1 0 -5 -25 -17 -55 -27 -48 -17 -54 -21 -49 -42 4 -16
2 -23 -7 -23 -8 0 -26 33 -43 78 -16 42 -38 96 -49 120 l-20 43 23 24 23 25
-26 0 c-22 0 -57 22 -57 36 0 3 24 2 54 -1 33 -4 61 -3 73 4 25 14 30 14 37
-5z m126 -305 c0 -10 -104 -59 -126 -59 -34 0 -8 27 49 51 61 25 77 27 77 8z
m17 -45 c3 -9 -5 -27 -22 -44 -24 -25 -26 -30 -12 -35 8 -4 25 -1 36 5 17 9
22 8 27 -5 4 -9 5 -17 3 -18 -13 -9 -117 -47 -127 -47 -23 0 -12 28 13 34 32
8 25 21 -14 29 -17 4 -35 16 -42 28 -12 24 -15 23 50 3 15 -4 25 3 43 30 25
39 36 44 45 20z"/>
<path d="M436 2368 c-146 -181 -251 -403 -286 -602 -6 -33 -15 -85 -20 -115
-6 -30 -10 -76 -10 -103 l0 -48 344 0 344 0 7 53 c18 142 61 254 137 355 22
29 38 56 36 60 -2 4 -112 114 -244 245 l-241 239 -67 -84z m293 -191 c116
-114 211 -211 211 -216 0 -4 -22 -44 -49 -89 -47 -78 -93 -204 -106 -288 -6
-39 -9 -42 -43 -48 -58 -9 -565 -7 -581 3 -12 8 -13 22 -2 98 23 159 57 281
113 412 23 55 120 219 145 246 10 11 31 37 46 58 16 21 35 37 42 35 7 -2 108
-97 224 -211z"/>
<path d="M377 2122 c-10 -10 -17 -23 -17 -29 0 -6 -13 -38 -30 -71 -16 -34
-30 -66 -30 -73 0 -7 -7 -20 -16 -30 -9 -10 -17 -33 -17 -51 -2 -31 2 -35 57
-61 57 -27 60 -28 77 -10 20 21 69 141 69 170 0 11 7 26 15 33 29 24 18 66
-27 104 -47 41 -58 43 -81 18z m103 -89 c0 -9 -18 -13 -60 -13 -47 0 -60 3
-60 15 0 8 9 15 20 15 19 0 20 4 14 37 l-7 36 47 -38 c25 -22 46 -45 46 -52z
m-52 -45 c25 -21 4 -88 -29 -88 -15 0 -10 22 8 35 15 11 15 15 4 29 -21 25
-53 21 -51 -6 3 -37 1 -41 -15 -28 -22 18 -18 46 7 64 22 16 51 13 76 -6z
m-64 -88 c51 -21 53 -27 30 -72 -10 -20 -19 -27 -26 -20 -7 7 -6 17 1 30 13
25 14 32 2 32 -5 0 -13 -9 -16 -20 -10 -32 -27 -24 -20 10 8 36 -10 41 -19 5
-4 -14 -13 -25 -21 -25 -8 0 -15 2 -15 5 0 6 33 75 36 75 1 0 23 -9 48 -20z"/>
<path d="M1334 2130 c-181 -47 -328 -164 -413 -330 -58 -112 -74 -177 -74
-305 -1 -171 44 -299 151 -428 239 -288 690 -311 960 -47 366 357 200 984
-294 1110 -99 26 -233 26 -330 0z m361 -39 c447 -158 577 -712 245 -1041 -111
-111 -244 -172 -386 -179 -32 -1 -62 -5 -66 -7 -16 -10 -206 37 -262 65 -175
86 -309 261 -339 443 -17 103 -6 242 25 333 66 190 235 344 433 396 95 25 264
20 350 -10z"/>
<path d="M1216 1608 c-27 -23 -28 -27 -27 -117 1 -98 9 -124 42 -141 26 -14
66 10 75 45 4 16 15 26 35 30 24 6 34 1 66 -34 63 -65 134 -67 204 -4 28 25
39 31 39 19 0 -22 36 -56 60 -56 39 0 60 35 60 98 0 52 3 62 30 87 36 34 37
47 8 75 -21 19 -31 21 -103 16 -124 -9 -137 -9 -181 -1 -32 6 -50 3 -82 -14
-39 -20 -44 -20 -66 -6 -14 9 -49 19 -78 22 -47 5 -58 2 -82 -19z m367 -36
c26 -22 39 -86 25 -128 -18 -53 -74 -81 -128 -65 -51 15 -70 44 -70 106 0 54
19 91 52 104 26 9 102 -2 121 -17z m217 2 c0 -23 -3 -25 -32 -22 l-33 3 4 -87
3 -88 -32 0 -32 0 3 88 4 87 -27 -3 c-28 -3 -43 11 -35 31 3 8 34 13 91 15
l86 2 0 -26z m-435 2 c25 -18 26 -80 2 -103 -11 -12 -32 -17 -58 -17 l-40 1 3
-41 c3 -38 1 -41 -22 -41 -25 0 -25 0 -28 108 l-3 107 64 0 c38 0 71 -5 82
-14z"/>
<path d="M1472 1538 c-7 -7 -12 -30 -12 -53 0 -23 5 -46 12 -53 17 -17 63 -15
78 3 16 20 17 80 1 99 -16 19 -62 21 -79 4z"/>
<path d="M1270 1520 c0 -34 22 -40 55 -16 27 19 13 46 -25 46 -27 0 -30 -3
-30 -30z"/>
<path d="M2186 1430 c-16 -135 -70 -275 -141 -360 -19 -23 -35 -45 -35 -50 0
-12 481 -481 490 -478 15 6 103 115 151 188 64 96 120 211 158 326 35 104 71
298 71 381 l0 55 -344 -3 -344 -4 -6 -55z m636 22 c26 -2 26 -3 23 -59 -6 -86
-14 -139 -35 -225 -23 -93 -98 -288 -111 -288 -5 0 -8 -4 -7 -9 7 -22 -153
-254 -188 -274 -11 -6 -73 50 -229 204 -118 117 -215 218 -215 224 0 7 8 23
19 36 59 76 124 236 136 336 l7 52 76 3 c79 3 476 3 524 0z"/>
<path d="M2598 1213 c-18 -23 -104 -200 -113 -234 -9 -36 15 -52 82 -55 59 -4
83 7 83 36 0 10 7 23 15 30 8 7 22 38 32 69 9 31 23 64 29 75 18 26 0 59 -42
80 -44 21 -67 20 -86 -1z m66 -24 c54 -23 55 -41 5 -50 l-34 -5 28 -14 c26
-13 37 -30 18 -30 -5 0 -30 9 -55 20 -49 21 -60 40 -23 40 12 0 29 4 36 9 12
8 9 11 -12 16 -27 7 -33 16 -20 28 8 9 3 10 57 -14z m-79 -109 c-7 -33 9 -42
18 -10 3 11 11 20 17 20 7 0 9 -7 6 -15 -3 -8 -9 -22 -12 -30 -11 -26 16 -16
28 10 10 23 28 34 28 18 0 -19 -25 -73 -35 -73 -5 1 -21 7 -35 15 -34 19 -45
18 -47 -4 -1 -13 10 -23 38 -34 21 -8 39 -20 39 -26 0 -15 -14 -14 -55 3 -31
13 -36 13 -44 -1 -4 -9 -14 -13 -20 -9 -8 6 -5 21 14 53 14 25 25 49 25 54 0
4 4 19 10 33 14 37 33 33 25 -4z"/>
<path d="M456 1473 l-338 -3 7 -73 c29 -327 144 -597 357 -840 l33 -37 245
245 244 245 -22 27 c-94 117 -143 227 -162 361 -7 45 -15 81 -19 80 -3 -2
-158 -4 -345 -5z m323 -55 c5 -13 16 -57 26 -98 20 -86 61 -177 111 -250 23
-34 32 -55 26 -65 -15 -28 -413 -425 -426 -425 -11 0 -53 47 -111 125 -41 55
-128 212 -155 280 -37 94 -78 255 -85 335 -3 36 -8 75 -10 87 -3 12 1 24 8 26
6 3 146 6 310 6 l297 1 9 -22z"/>
<path d="M335 1214 c-16 -8 -34 -19 -39 -24 -11 -11 8 -85 40 -155 12 -27 30
-72 39 -100 31 -96 57 -116 118 -90 55 23 75 78 42 121 -8 10 -15 27 -15 37 0
9 -4 17 -10 17 -5 0 -10 6 -10 14 0 16 -48 136 -68 174 -15 26 -53 29 -97 6z
m80 -14 c3 -6 -4 -14 -17 -19 -24 -9 -24 -10 27 -26 8 -2 15 -11 15 -20 0 -12
-4 -14 -19 -5 -29 15 -36 13 -51 -15 -7 -14 -19 -25 -27 -25 -17 0 -17 11 2
36 21 28 18 35 -10 28 -43 -11 -29 20 18 38 53 20 55 20 62 8z m35 -100 c0 -7
-82 -50 -96 -50 -2 0 -4 6 -4 14 0 7 17 20 38 29 44 18 62 20 62 7z m20 -43
c0 -8 -9 -22 -20 -32 -25 -22 -19 -31 10 -15 15 8 25 9 32 2 10 -10 -20 -27
-80 -46 -26 -9 -31 14 -7 34 24 20 17 30 -15 24 -46 -10 -37 12 13 29 54 20
67 20 67 4z m40 -107 c21 -21 23 -29 14 -54 -9 -25 -22 -19 -26 12 -2 21 -8
27 -28 27 -18 0 -26 -6 -28 -22 -4 -24 13 -32 21 -10 4 9 8 8 16 -3 15 -21 9
-34 -17 -38 -26 -4 -56 39 -48 66 6 19 39 40 64 41 6 1 21 -8 32 -19z"/>
<path d="M1944 965 c-89 -79 -239 -142 -357 -152 l-69 -6 4 -346 4 -346 69 3
c83 3 244 33 335 62 156 50 383 181 503 291 l37 35 -240 239 c-132 132 -244
241 -248 243 -5 1 -22 -9 -38 -23z m124 -107 c176 -169 342 -340 342 -352 0
-32 -171 -151 -325 -226 -155 -76 -297 -115 -451 -127 l-71 -5 -6 128 c-12
223 -9 480 6 492 6 5 34 13 60 16 96 14 218 65 296 123 24 18 48 33 53 33 5 0
48 -37 96 -82z"/>
<path d="M2076 542 c-3 -5 -31 -17 -63 -27 -32 -11 -67 -27 -79 -37 -11 -10
-29 -18 -40 -19 -10 0 -39 -10 -64 -22 -41 -20 -45 -26 -48 -62 -2 -22 -8 -45
-14 -52 -7 -9 -7 -18 2 -29 28 -32 45 -34 101 -7 30 15 61 28 69 29 28 5 91
31 102 42 7 7 20 12 29 12 10 0 21 5 24 10 3 6 14 10 24 10 21 0 51 30 51 52
0 9 -7 21 -15 28 -8 7 -15 20 -15 30 0 30 -50 64 -64 42z m44 -17 c0 -3 -6
-14 -12 -26 -11 -18 -10 -23 15 -40 15 -12 27 -25 27 -30 0 -14 -26 -10 -40 6
-18 22 -31 18 -28 -7 5 -42 -15 -33 -35 15 -20 49 -16 76 8 44 12 -16 14 -15
23 13 6 16 18 30 26 30 9 0 16 -2 16 -5z m-102 -62 c2 -8 -6 -13 -22 -13 -31
0 -40 -14 -26 -40 13 -25 29 -26 46 -3 7 10 16 15 19 11 11 -11 -1 -35 -23
-47 -25 -13 -72 20 -72 51 0 44 65 78 78 41z m-93 -69 c35 -42 42 -71 12 -45
-19 15 -43 5 -52 -22 -5 -17 -9 -7 -16 37 -7 45 -6 62 4 68 6 4 13 8 13 8 1 0
18 -20 39 -46z m-87 -17 c18 -49 15 -75 -8 -82 -23 -7 -53 12 -44 27 3 5 14 6
25 3 22 -7 23 1 4 35 -18 31 -19 50 -2 50 7 0 18 -15 25 -33z"/>
<path d="M782 737 l-242 -242 47 -40 c188 -157 401 -264 619 -310 70 -15 283
-39 289 -33 1 2 0 158 -4 348 l-6 345 -45 3 c-118 8 -279 70 -359 139 -22 18
-43 33 -48 33 -4 0 -117 -109 -251 -243z m280 186 c4 -10 72 -53 118 -75 49
-24 145 -54 212 -68 32 -6 60 -14 62 -18 4 -6 10 -548 7 -596 -1 -18 -7 -19
-98 -12 -157 11 -314 56 -476 137 -84 42 -215 131 -257 174 l-34 35 214 215
c192 192 240 233 252 208z"/>
<path d="M833 548 c-29 -14 -54 -68 -46 -99 8 -33 32 -54 79 -70 21 -7 43 -17
49 -21 5 -4 15 -8 23 -8 8 0 33 -9 56 -19 86 -41 159 -71 170 -71 7 0 29 -9
50 -20 l39 -19 33 33 c36 36 46 86 22 109 -33 31 -211 109 -287 126 -24 5 -47
14 -50 19 -7 10 -95 52 -108 51 -4 0 -18 -5 -30 -11z m69 -35 c22 -20 23 -42
2 -71 -8 -12 -13 -26 -9 -31 3 -5 1 -12 -5 -16 -6 -3 -13 1 -16 9 -3 9 -12 16
-19 16 -20 0 -45 29 -45 51 0 23 34 59 57 59 9 0 25 -7 35 -17z m53 -62 c-9
-17 -13 -36 -10 -41 12 -20 34 -9 40 20 7 32 19 45 34 36 12 -8 -25 -85 -44
-92 -21 -8 -55 14 -55 37 0 35 29 94 41 82 8 -8 6 -20 -6 -42z m129 -11 c38
-14 33 -33 -6 -25 l-33 6 25 -20 c28 -23 22 -38 -9 -21 -17 8 -21 8 -21 -4 0
-8 9 -18 20 -21 19 -6 29 -25 13 -25 -15 0 -73 24 -70 30 1 3 11 24 21 48 20
46 22 47 60 32z m91 -36 c26 -10 34 -19 27 -26 -7 -7 -17 -6 -32 2 -12 6 -24
9 -27 6 -8 -8 7 -26 23 -26 8 0 14 -7 14 -15 0 -13 -4 -14 -20 -5 -11 6 -25 8
-32 4 -7 -4 -1 -12 16 -21 26 -14 35 -33 16 -33 -6 0 -24 7 -40 15 l-29 15 21
50 c11 27 22 50 23 50 1 0 19 -7 40 -16z m76 -65 l6 -34 11 28 c11 25 32 38
32 18 0 -22 -43 -102 -53 -98 -7 2 -14 21 -17 43 l-5 39 -13 -34 c-8 -23 -16
-31 -22 -25 -13 13 27 107 43 101 7 -2 15 -19 18 -38z"/>
<path d="M847 493 c-14 -14 -6 -41 13 -46 22 -6 41 18 33 41 -5 13 -35 17 -46
5z"/>
<path d="M743 33 c-484 -2 -743 -7 -743 -13 0 -7 513 -10 1500 -10 993 0 1500
3 1500 10 0 7 -248 10 -722 10 -398 0 -739 2 -758 3 -19 2 -369 2 -777 0z"/>
</g>
</svg>
